Coordinates
version=1
nRows=8
nColumns=42
inDegrees=yes

Units are S.I. units (second, meters, Newtons, ...)
If the header above contains a line with 'inDegrees', this indicates whether rotational values are in degrees (yes) or radians (no).

endheader
time	pelvis_tilt	pelvis_list	pelvis_rotation	pelvis_tx	pelvis_ty	pelvis_tz	hip_flexion_r	hip_adduction_r	hip_rotation_r	knee_angle_r	knee_adduction_r	knee_angle_r_beta	ankle_angle_r	subtalar_angle_r	mtp_angle_r	hip_flexion_l	hip_adduction_l	hip_rotation_l	knee_angle_l	knee_adduction_l	knee_angle_l_beta	ankle_angle_l	subtalar_angle_l	mtp_angle_l	lumbar_extension	lumbar_bending	lumbar_rotation	arm_flex_r	arm_add_r	arm_rot_r	elbow_flex_r	pro_sup_r	wrist_flex_r	wrist_dev_r	arm_flex_l	arm_add_l	arm_rot_l	elbow_flex_l	pro_sup_l	wrist_flex_l	wrist_dev_l
      0.50000000	      6.23042025	     -1.25453920	      5.05901832	     -1.06944033	      0.88376575	     -0.15927186	     -0.21738347	      2.30319539	    -20.23990936	     25.16220140	     -1.65190060	      0.43916326	     21.80126996	     31.01512063	     -9.55506311	     10.43018972	     -2.14750243	      4.42758682	     56.63548398	     -3.12272471	      0.98847567	      4.56202830	     -6.69308306	     -9.55506311	    -29.76729876	      6.86351309	     -2.91369882	      9.11407816	    -13.76991996	    -12.08560544	     41.15418752	     90.00000001	      0.00000000	      0.00000000	     17.52094315	     -8.09774301	     30.79854111	     53.80222355	     90.00000001	      0.00000000	      0.00000000
      0.51000000	      6.19953049	     -1.23459917	      5.02780010	     -1.06708648	      0.88373229	     -0.15874528	     -0.38782315	      2.28845157	    -20.20055445	     25.18174311	     -1.55533637	      0.43950433	     21.74577682	     30.76261803	     -9.53590512	     11.14043924	     -2.10876044	      4.31375067	     56.44778464	     -3.00503456	      0.98519970	      4.62912570	     -6.50839888	     -9.53590512	    -29.75133729	      6.81012201	     -2.89125372	      9.13154300	    -13.75279178	    -12.03642296	     41.25339085	     90.00000001	      0.00000000	      0.00000000	     17.71533302	     -8.03561653	     30.73837969	     53.94515286	     90.00000001	      0.00000000	      0.00000000
      0.52000000	      6.13025227	     -1.24771742	      5.25912451	     -1.06458759	      0.88362860	     -0.15868617	     -0.75391397	      2.33101109	    -20.20738544	     24.71207588	     -1.30708816	      0.43130709	     21.96577890	     30.89144417	     -9.51655892	     11.93258510	     -1.97712808	      4.58741141	     56.33348288	     -2.91695944	      0.98320476	      4.91064679	     -6.21771619	     -9.51655892	    -29.61717736	      6.90791902	     -3.11083785	      9.11757412	    -13.72369367	    -11.96656536	     41.27080196	     90.00000001	      0.00000000	      0.00000000	     17.82625671	     -8.06428897	     30.90399125	     54.01381948	     90.00000001	      0.00000000	      0.00000000
      0.53000000	      6.06373463	     -1.35068858	      5.42517268	     -1.06223267	      0.88345383	     -0.15838009	     -0.99411533	      2.48882676	    -20.22083601	     24.45256980	     -1.13450298	      0.42677785	     21.98233781	     30.79345324	     -9.46605607	     12.75637872	     -2.08329476	      4.87098238	     56.27096851	     -2.63187815	      0.98211367	      5.30558152	     -5.42698992	     -9.46605607	    -29.50836708	      7.04675918	     -3.20565855	      9.06100210	    -13.74382623	    -11.80585037	     41.42815318	     90.00000001	      0.00000000	      0.00000000	     17.96996033	     -8.11311774	     31.04555018	     54.18956628	     90.00000001	      0.00000000	      0.00000000
      0.54000000	      6.02140640	     -1.32477669	      5.48279407	     -1.05975030	      0.88337478	     -0.15809567	     -1.24017931	      2.50305943	    -20.25676214	     24.26917965	     -1.07843592	      0.42357709	     22.03763926	     30.69570956	     -9.44545173	     13.46103179	     -2.00325611	      4.88083867	     56.09901496	     -2.58932071	      0.97911252	      5.46036233	     -5.15915935	     -9.44545173	    -29.44061389	      7.02763167	     -3.23717016	      9.00751614	    -13.72290817	    -11.73362035	     41.49678096	     90.00000001	      0.00000000	      0.00000000	     18.09647139	     -8.07642569	     31.05616361	     54.24724462	     90.00000001	      0.00000000	      0.00000000
      0.55000000	      5.98997786	     -1.30326140	      5.58319734	     -1.05730371	      0.88329666	     -0.15789877	     -1.50384964	      2.51503930	    -20.27186181	     24.07844179	     -0.96970072	      0.42024809	     22.11095601	     30.62973032	     -9.42573037	     14.15509661	     -1.93074750	      4.95094263	     55.92949199	     -2.53279870	      0.97615378	      5.60394984	     -4.79761544	     -9.42573037	    -29.37080666	      7.03099576	     -3.32442488	      8.95349943	    -13.70627590	    -11.65302896	     41.60145050	     90.00000001	      0.00000000	      0.00000000	     18.21392999	     -8.07094430	     31.06831699	     54.28302241	     90.00000001	      0.00000000	      0.00000000
      0.56000000	      5.96183770	     -1.28165088	      5.69649908	     -1.05481218	      0.88323949	     -0.15773195	     -1.77282554	      2.52990474	    -20.29944776	     23.88008872	     -0.87379266	      0.41678617	     22.19287655	     30.57925846	     -9.40645982	     14.81688081	     -1.85834656	      5.04244400	     55.73382341	     -2.50079166	      0.97273872	      5.76750941	     -4.37396197	     -9.40645982	    -29.30105985	      7.04417841	     -3.41865263	      8.89143552	    -13.69440197	    -11.55840460	     41.73164993	     90.00000001	      0.00000000	      0.00000000	     18.29980610	     -8.08077013	     31.08131279	     54.28693343	     90.00000001	      0.00000000	      0.00000000
      0.57000000	      5.99994603	     -1.38550062	      5.81322017	     -1.05238011	      0.88315813	     -0.15744522	     -2.08588301	      2.74077836	    -20.32941856	     23.67753513	     -0.84790242	      0.41325095	     22.15829348	     30.58900595	     -9.30079775	     15.45371987	     -2.00868166	      4.86418182	     55.56322788	     -2.66705208	      0.96976127	      6.52850446	     -2.55897502	     -9.30079775	    -29.31129983	      7.17356705	     -3.45942322	      8.71281210	    -13.77831709	    -11.05844621	     42.15152987	     90.00000001	      0.00000000	      0.00000000	     18.44982120	     -8.12102822	     31.11339536	     54.31636057	     90.00000001	      0.00000000	      0.00000000
